<svg width="432" height="432" viewBox="0 0 432 432" xmlns="http://www.w3.org/2000/svg">
  <defs>
    <g id="petera-brand-petal">
      <path d="M0,-274C56,-274 108,-228 108,-166C108,-114 70,-64 0,-18C-70,-64 -108,-114 -108,-166C-108,-228 -56,-274 0,-274Z" fill="#000"/>
    </g>
    <mask id="petera-brand-star-cutout" maskUnits="userSpaceOnUse" x="0" y="0" width="432" height="432">
      <rect width="432" height="432" fill="#fff"/>
      <g transform="translate(216 221) scale(0.50625)">
        <path d="M0,-92L16,-28L82,-28L28,12L48,74L0,36L-48,74L-28,12L-82,-28L-16,-28Z" fill="#000"/>
      </g>
    </mask>

    <mask id="donut-cutout">
      <rect width="100%" height="100%" fill="#fff" />
      <circle cx="216" cy="221" r="11" fill="#000"/>
    </mask>
  </defs>

  <g mask="url(#petera-brand-star-cutout)">
    <g transform="translate(216 221) scale(0.50625)">
      <use href="#petera-brand-petal" transform="rotate(180)"/>
      <use href="#petera-brand-petal" transform="rotate(252)"/>
      <use href="#petera-brand-petal" transform="rotate(324)"/>
      <use href="#petera-brand-petal" transform="rotate(36)"/>
      <use href="#petera-brand-petal" transform="rotate(108)"/>
    </g>
  </g>
  <circle cx="216" cy="221" r="25" fill="#000" mask="url(#donut-cutout)" />
</svg>
