<svg xmlns="http://www.w3.org/2000/svg" width="512" height="512" viewBox="0 0 512 512">
  <defs>
    <g id="petera-adaptive-petal">
      <path d="M0,-137C28,-137 54,-114 54,-83C54,-57 35,-32 0,-9C-35,-32 -54,-57 -54,-83C-54,-114 -28,-137 0,-137Z" fill="#7B97F8"/>
      <path d="M0,-125C17,-125 31,-111 31,-94C31,-77 20,-63 0,-46C-20,-63 -31,-77 -31,-94C-31,-111 -17,-125 0,-125Z" fill="#AAB9FB" opacity="0.92"/>
    </g>
  </defs>

  <g transform="translate(256 262) scale(1.08)">
    <use href="#petera-adaptive-petal" transform="rotate(180)"/>
    <use href="#petera-adaptive-petal" transform="rotate(252)"/>
    <use href="#petera-adaptive-petal" transform="rotate(324)"/>
    <use href="#petera-adaptive-petal" transform="rotate(36)"/>
    <use href="#petera-adaptive-petal" transform="rotate(108)"/>
    <path d="M0,-46L8,-14L41,-14L14,6L24,37L0,18L-24,37L-14,6L-41,-14L-8,-14Z" fill="#ECE4D7"/>
    <circle r="28" fill="#EBA937"/>
    <circle r="13" fill="#2A251F"/>
  </g>
</svg>
