<svg xmlns="http://www.w3.org/2000/svg" viewBox="0 0 1200 630" role="img" aria-label="Petera social card">
  <defs>
    <g id="petera-petal">
      <path d="M0,-274C56,-274 108,-228 108,-166C108,-114 70,-64 0,-18C-70,-64 -108,-114 -108,-166C-108,-228 -56,-274 0,-274Z" />
    </g>
  </defs>

  <rect width="1200" height="630" fill="#F4F1EA" />

  <!-- Ghost petal texture: top-left (small) -->
  <g transform="translate(185 160) scale(0.25) rotate(45)" fill="#FCFAF5">
    <use href="#petera-petal" transform="rotate(180)" />
    <use href="#petera-petal" transform="rotate(252)" />
    <use href="#petera-petal" transform="rotate(324)" />
    <use href="#petera-petal" transform="rotate(36)" />
    <use href="#petera-petal" transform="rotate(108)" />
    <path d="M0,-92L16,-28L82,-28L28,12L48,74L0,36L-48,74L-28,12L-82,-28L-16,-28Z" fill="#F4F1EA"/>
    <circle r="56" />
    <circle r="26" fill="#F4F1EA" />
  </g>

  <!-- Ghost petal texture: top-right (medium) -->
  <g transform="translate(450 500) scale(0.5) rotate(60)" fill="#FCFAF5">
    <use href="#petera-petal" transform="rotate(180)" />
    <use href="#petera-petal" transform="rotate(252)" />
    <use href="#petera-petal" transform="rotate(324)" />
    <use href="#petera-petal" transform="rotate(36)" />
    <use href="#petera-petal" transform="rotate(108)" />
    <path d="M0,-92L16,-28L82,-28L28,12L48,74L0,36L-48,74L-28,12L-82,-28L-16,-28Z" fill="#F4F1EA"/>
    <circle r="56" />
    <circle r="26" fill="#F4F1EA" />
  </g>

  <!-- Ghost petal texture: top-center (big) -->
  <g transform="translate(600 150) scale(0.7) rotate(30)" fill="#FCFAF5">
    <use href="#petera-petal" transform="rotate(180)" />
    <use href="#petera-petal" transform="rotate(252)" />
    <use href="#petera-petal" transform="rotate(324)" />
    <use href="#petera-petal" transform="rotate(36)" />
    <use href="#petera-petal" transform="rotate(108)" />
    <path d="M0,-92L16,-28L82,-28L28,12L48,74L0,36L-48,74L-28,12L-82,-28L-16,-28Z" fill="#F4F1EA"/>
    <circle r="56" />
    <circle r="26" fill="#F4F1EA" />
  </g>

  <!-- App icon centered at (900, 315), rendered at 360×360 px -->
  <!-- scale=360/1024≈0.3516; translate=(900-180, 315-180)=(720,135) -->
  <g transform="translate(720 135) scale(0.3516)">
    <g transform="translate(512 512) scale(1.65)">
      <g transform="rotate(180)">
        <path d="M0,-274C56,-274 108,-228 108,-166C108,-114 70,-64 0,-18C-70,-64 -108,-114 -108,-166C-108,-228 -56,-274 0,-274Z" fill="#7189E7"/>
        <path d="M0,-250C34,-250 62,-222 62,-188C62,-154 40,-126 0,-92C-40,-126 -62,-154 -62,-188C-62,-222 -34,-250 0,-250Z" fill="#D9E0FB" opacity="0.75"/>
      </g>
      <g transform="rotate(252)">
        <path d="M0,-274C56,-274 108,-228 108,-166C108,-114 70,-64 0,-18C-70,-64 -108,-114 -108,-166C-108,-228 -56,-274 0,-274Z" fill="#7189E7"/>
        <path d="M0,-250C34,-250 62,-222 62,-188C62,-154 40,-126 0,-92C-40,-126 -62,-154 -62,-188C-62,-222 -34,-250 0,-250Z" fill="#D9E0FB" opacity="0.75"/>
      </g>
      <g transform="rotate(324)">
        <path d="M0,-274C56,-274 108,-228 108,-166C108,-114 70,-64 0,-18C-70,-64 -108,-114 -108,-166C-108,-228 -56,-274 0,-274Z" fill="#7189E7"/>
        <path d="M0,-250C34,-250 62,-222 62,-188C62,-154 40,-126 0,-92C-40,-126 -62,-154 -62,-188C-62,-222 -34,-250 0,-250Z" fill="#D9E0FB" opacity="0.75"/>
      </g>
      <g transform="rotate(36)">
        <path d="M0,-274C56,-274 108,-228 108,-166C108,-114 70,-64 0,-18C-70,-64 -108,-114 -108,-166C-108,-228 -56,-274 0,-274Z" fill="#7189E7"/>
        <path d="M0,-250C34,-250 62,-222 62,-188C62,-154 40,-126 0,-92C-40,-126 -62,-154 -62,-188C-62,-222 -34,-250 0,-250Z" fill="#D9E0FB" opacity="0.75"/>
      </g>
      <g transform="rotate(108)">
        <path d="M0,-274C56,-274 108,-228 108,-166C108,-114 70,-64 0,-18C-70,-64 -108,-114 -108,-166C-108,-228 -56,-274 0,-274Z" fill="#7189E7"/>
        <path d="M0,-250C34,-250 62,-222 62,-188C62,-154 40,-126 0,-92C-40,-126 -62,-154 -62,-188C-62,-222 -34,-250 0,-250Z" fill="#D9E0FB" opacity="0.75"/>
      </g>
      <path d="M0,-92L16,-28L82,-28L28,12L48,74L0,36L-48,74L-28,12L-82,-28L-16,-28Z" fill="#ECE6DA"/>
      <circle r="56" fill="#EBA937"/>
      <circle r="26" fill="#242118"/>
    </g>
  </g>

  <!-- App name -->
  <text
    x="110"
    y="305"
    fill="#7189E7"
    font-size="104"
    font-family="Noto Sans Display, Noto Sans, Arial, sans-serif"
    font-weight="500"
    font-variant="small-caps"
  >Petera</text>

  <!-- Tagline, split across two lines to stay within the left column -->
  <text
    x="110"
    y="364"
    fill="#242118"
    font-size="28"
    font-family="Noto Sans, Arial, sans-serif"
    font-weight="500"
  >Keep reminders in view</text>
  <text
    x="110"
    y="402"
    fill="#242118"
    font-size="28"
    font-family="Noto Sans, Arial, sans-serif"
    font-weight="500"
  >until you deal with them.</text>

  <!-- Domain -->
  <text
    x="110"
    y="598"
    fill="#6E6558"
    font-size="22"
    font-family="Noto Sans, Arial, sans-serif"
    font-weight="400"
    opacity="0.55"
  >petera.app</text>
</svg>
